<svg xmlns="http://www.w3.org/2000/svg" viewBox="0 0 1200 900" role="img" aria-labelledby="title desc"><title id="title">Aydınlık salonda duvar tipi klima</title><desc id="desc">Ege esintili aydınlık bir salon ve duvar tipi klima için temsili illüstrasyon.</desc><defs><linearGradient id="sky" x1="0" y1="0" x2="0" y2="1"><stop offset="0" stop-color="#dff4f8"/><stop offset="1" stop-color="#f7efe1"/></linearGradient><linearGradient id="wall" x1="0" y1="0" x2="1" y2="1"><stop offset="0" stop-color="#f7f2e8"/><stop offset="1" stop-color="#e8dfcf"/></linearGradient><linearGradient id="sea" x1="0" y1="0" x2="0" y2="1"><stop offset="0" stop-color="#8ed1df"/><stop offset="1" stop-color="#4aa3b5"/></linearGradient><filter id="shadow" x="-20%" y="-20%" width="140%" height="140%"><feDropShadow dx="0" dy="12" stdDeviation="16" flood-color="#16342d" flood-opacity=".18"/></filter></defs><rect width="1200" height="900" fill="url(#sky)"/><rect y="0" width="760" height="900" fill="url(#wall)"/><path d="M760 0h440v520H760z" fill="#edf8fa"/><path d="M760 330h440v190H760z" fill="url(#sea)"/><path d="M760 312c95 18 178-20 264-5 62 11 115 9 176-4v29H760z" fill="#f7efe1" opacity=".9"/><rect x="815" y="95" width="335" height="28" rx="14" fill="#f9fbfb" opacity=".85"/><g filter="url(#shadow)"><rect x="132" y="120" width="470" height="132" rx="42" fill="#fff"/><path d="M165 217h402" stroke="#c9d4d0" stroke-width="8" stroke-linecap="round"/><rect x="514" y="148" width="44" height="12" rx="6" fill="#7aa295"/></g><path d="M225 605c80-88 191-120 314-86 62 17 113 52 162 104v171H215z" fill="#d3c1a2"/><rect x="264" y="642" width="368" height="152" rx="38" fill="#efe4d0"/><rect x="80" y="690" width="205" height="36" rx="18" fill="#8b6d4e"/><path d="M112 690c20-127 50-218 90-271" stroke="#7f956c" stroke-width="22" stroke-linecap="round"/><circle cx="190" cy="427" r="62" fill="#8fab79"/><circle cx="123" cy="490" r="45" fill="#789667"/><circle cx="236" cy="495" r="49" fill="#93ad7b"/><circle cx="958" cy="679" r="86" fill="#b5835f" opacity=".9"/><rect x="900" y="740" width="116" height="30" rx="15" fill="#8c6247"/><path d="M0 820h1200v80H0z" fill="#d7c6a7"/><g opacity=".25" fill="none" stroke="#6ec6d8" stroke-width="8" stroke-linecap="round"><path d="M305 285c70 28 142 28 212 0"/><path d="M325 320c56 22 111 22 166 0"/></g></svg>