<svg xmlns="http://www.w3.org/2000/svg" viewBox="0 0 1200 750" width="1200" height="750" role="img" aria-label="Enerji sınıfı etiketi ve SEER, SCOP değerleri" font-family="Plus Jakarta Sans, Segoe UI, Arial, sans-serif">
<defs><linearGradient id="bg" x1="0" y1="0" x2="1" y2="1"><stop offset="0" stop-color="#f7fbf9"/><stop offset="1" stop-color="#e3eee9"/></linearGradient>
<linearGradient id="unit" x1="0" y1="0" x2="0" y2="1"><stop offset="0" stop-color="#ffffff"/><stop offset="1" stop-color="#e9efed"/></linearGradient>
<linearGradient id="odu" x1="0" y1="0" x2="0" y2="1"><stop offset="0" stop-color="#f4f6f5"/><stop offset="1" stop-color="#dbe3e0"/></linearGradient>
<filter id="sh" x="-20%" y="-20%" width="140%" height="160%"><feDropShadow dx="0" dy="10" stdDeviation="12" flood-color="#0f382e" flood-opacity=".14"/></filter></defs>
<rect width="1200" height="750" fill="url(#bg)"/>
<g filter="url(#sh)"><rect x="90" y="70" width="560" height="610" rx="26" fill="#fff"/></g><text x="130" y="130" font-size="28" font-weight="800" fill="#0f382e">Enerji sınıfı</text><path d="M130 165 h520 l32 30 l-32 30 h-520 z" fill="#0b7a3b"/><text x="152" y="207" font-size="30" font-weight="800" fill="#fff">A+++</text><path d="M130 235 h470 l32 30 l-32 30 h-470 z" fill="#3a9a3a"/><text x="152" y="277" font-size="30" font-weight="800" fill="#fff">A++</text><path d="M130 305 h420 l32 30 l-32 30 h-420 z" fill="#9cc23a"/><text x="152" y="347" font-size="30" font-weight="800" fill="#fff">A+</text><path d="M130 375 h370 l32 30 l-32 30 h-370 z" fill="#e6d330"/><text x="152" y="417" font-size="30" font-weight="800" fill="#fff">A</text><path d="M130 445 h320 l32 30 l-32 30 h-320 z" fill="#f0b429"/><text x="152" y="487" font-size="30" font-weight="800" fill="#fff">B</text><path d="M130 515 h270 l32 30 l-32 30 h-270 z" fill="#e8792b"/><text x="152" y="557" font-size="30" font-weight="800" fill="#fff">C</text><path d="M130 585 h220 l32 30 l-32 30 h-220 z" fill="#d6362f"/><text x="152" y="627" font-size="30" font-weight="800" fill="#fff">D</text><path d="M690 195 l-26 0" stroke="#0f382e" stroke-width="4"/><path d="M700 170 h120 a14 14 0 0 1 14 14 v32 a14 14 0 0 1 -14 14 h-120 l-26 -30 z" fill="#0f382e"/><text x="760" y="209" text-anchor="middle" font-size="28" font-weight="800" fill="#fff">A+++</text><g filter="url(#sh)"><rect x="720" y="300" width="390" height="160" rx="22" fill="#fff"/><rect x="720" y="490" width="390" height="160" rx="22" fill="#fff"/></g>
<g stroke="#2b8fc6" stroke-width="5" stroke-linecap="round"><line x1="790" y1="345" x2="790" y2="415"/><line x1="760" y1="362" x2="820" y2="398"/><line x1="760" y1="398" x2="820" y2="362"/></g>
<text x="850" y="365" font-size="30" font-weight="800" fill="#0f382e">SEER</text><text x="850" y="405" font-size="22" fill="#56625e">Soğutma sezonu</text><text x="850" y="436" font-size="22" fill="#56625e">verimliliği</text>
<circle cx="790" cy="570" r="22" fill="#f2b544"/><g stroke="#f2b544" stroke-width="5" stroke-linecap="round"><line x1="822.0" y1="570.0" x2="834.0" y2="570.0"/><line x1="812.6364246133504" y1="592.6184057953717" x2="821.1250838433568" y2="601.1003079686361"/><line x1="790.0254824547435" y1="601.9999898538188" x2="790.0350383752723" y2="613.9999860490008"/><line x1="767.3996273657598" y1="592.6544290767498" x2="758.9244876279198" y2="601.149839980531"/><line x1="758.0000405847187" y1="570.0509648933275" x2="746.0000558039883" y2="570.0700767283254"/><line x1="767.3275808258472" y1="547.4176748586087" x2="758.82542363554" y2="538.949302930587"/><line x1="789.923552700407" y1="538.0000913155931" x2="789.8948849630597" y2="526.0001255589405"/><line x1="812.5642633282695" y1="547.3096051058491" x2="821.0258620763706" y2="538.8007070205424"/></g>
<text x="850" y="555" font-size="30" font-weight="800" fill="#0f382e">SCOP</text><text x="850" y="595" font-size="22" fill="#56625e">Isıtma sezonu</text><text x="850" y="626" font-size="22" fill="#56625e">verimliliği</text>
<text x="720" y="110" font-size="24" font-weight="700" fill="#0f382e">Değer yükseldikçe</text><text x="720" y="142" font-size="24" font-weight="700" fill="#006c49">tüketim düşer</text>
</svg>