<svg xmlns="http://www.w3.org/2000/svg" viewBox="0 0 1200 750" width="1200" height="750" role="img" aria-label="Yazlık, salon, ofis ve mağaza kullanım senaryoları" font-family="Plus Jakarta Sans, Segoe UI, Arial, sans-serif">
<defs><linearGradient id="bg" x1="0" y1="0" x2="1" y2="1"><stop offset="0" stop-color="#f7fbf9"/><stop offset="1" stop-color="#e3eee9"/></linearGradient>
<linearGradient id="unit" x1="0" y1="0" x2="0" y2="1"><stop offset="0" stop-color="#ffffff"/><stop offset="1" stop-color="#e9efed"/></linearGradient>
<linearGradient id="odu" x1="0" y1="0" x2="0" y2="1"><stop offset="0" stop-color="#f4f6f5"/><stop offset="1" stop-color="#dbe3e0"/></linearGradient>
<filter id="sh" x="-20%" y="-20%" width="140%" height="160%"><feDropShadow dx="0" dy="10" stdDeviation="12" flood-color="#0f382e" flood-opacity=".14"/></filter></defs>
<rect width="1200" height="750" fill="url(#bg)"/>
<g filter="url(#sh)"><rect x="70" y="60" width="520" height="300" rx="24" fill="#fff"/></g><text x="110" y="290" font-size="32" font-weight="800" fill="#0f382e">Yazlık</text><text x="110" y="326" font-size="21" fill="#56625e">Nem ve sezonluk kullanım</text><path d="M240 205 v-50 l90 -60 l90 60 v50 z" fill="#e3f3ea" stroke="#006c49" stroke-width="5" stroke-linejoin="round"/><rect x="310" y="165" width="40" height="40" fill="#006c49"/><circle cx="480" cy="115" r="26" fill="#f2b544"/><path d="M140 227 q 30 -18 60 0 t 60 0 t 60 0 t 60 0 t 60 0 t 60 0 t 60 0" fill="none" stroke="#2b8fc6" stroke-width="5"/><g filter="url(#sh)"><rect x="610" y="60" width="520" height="300" rx="24" fill="#fff"/></g><text x="650" y="290" font-size="32" font-weight="800" fill="#0f382e">Salon</text><text x="650" y="326" font-size="21" fill="#56625e">Açık plan, geniş alan</text><rect x="740" y="155" width="260" height="60" rx="18" fill="#e3f3ea" stroke="#006c49" stroke-width="5"/><rect x="720" y="125" width="40" height="100" rx="14" fill="#006c49"/><rect x="980" y="125" width="40" height="100" rx="14" fill="#006c49"/><rect x="810" y="75" width="120" height="34" rx="12" fill="#0f382e"/><g filter="url(#sh)"><rect x="70" y="390" width="520" height="300" rx="24" fill="#fff"/></g><text x="110" y="620" font-size="32" font-weight="800" fill="#0f382e">Ofis</text><text x="110" y="656" font-size="21" fill="#56625e">Cihaz ve kişi yükü</text><rect x="190" y="515" width="280" height="14" rx="7" fill="#006c49"/><rect x="260" y="425" width="140" height="84" rx="10" fill="#e3f3ea" stroke="#006c49" stroke-width="5"/><rect x="320" y="509" width="20" height="8" fill="#006c49"/><rect x="410" y="475" width="40" height="40" rx="6" fill="#0f382e"/><path d="M210 529 v40 M450 529 v40" stroke="#006c49" stroke-width="6"/><g filter="url(#sh)"><rect x="610" y="390" width="520" height="300" rx="24" fill="#fff"/></g><text x="650" y="620" font-size="32" font-weight="800" fill="#0f382e">Mağaza</text><text x="650" y="656" font-size="21" fill="#56625e">Kapı, vitrin, kalabalık</text><path d="M720 435 h300 l-20 40 h-260 z" fill="#006c49"/><rect x="740" y="475" width="260" height="100" fill="#e3f3ea" stroke="#006c49" stroke-width="5"/><rect x="840" y="505" width="60" height="70" fill="#0f382e"/><rect x="760" y="495" width="60" height="44" fill="#fff" stroke="#006c49" stroke-width="4"/><rect x="920" y="495" width="60" height="44" fill="#fff" stroke="#006c49" stroke-width="4"/>
</svg>