<svg xmlns="http://www.w3.org/2000/svg" viewBox="0 0 1200 750" width="1200" height="750" role="img" aria-label="Multi sistem klima: bir dış üniteye bağlı üç iç ünite" font-family="Plus Jakarta Sans, Segoe UI, Arial, sans-serif">
<defs><linearGradient id="bg" x1="0" y1="0" x2="1" y2="1"><stop offset="0" stop-color="#f7fbf9"/><stop offset="1" stop-color="#e3eee9"/></linearGradient>
<linearGradient id="unit" x1="0" y1="0" x2="0" y2="1"><stop offset="0" stop-color="#ffffff"/><stop offset="1" stop-color="#e9efed"/></linearGradient>
<linearGradient id="odu" x1="0" y1="0" x2="0" y2="1"><stop offset="0" stop-color="#f4f6f5"/><stop offset="1" stop-color="#dbe3e0"/></linearGradient>
<filter id="sh" x="-20%" y="-20%" width="140%" height="160%"><feDropShadow dx="0" dy="10" stdDeviation="12" flood-color="#0f382e" flood-opacity=".14"/></filter></defs>
<rect width="1200" height="750" fill="url(#bg)"/>
<text x="80" y="86" font-size="28" font-weight="800" fill="#0f382e">Tek dış ünite, birden fazla oda</text><rect x="80" y="130" width="320" height="250" rx="18" fill="#fff" stroke="#cfe0d9" stroke-width="3"/><g filter="url(#sh)"><rect x="120" y="165" width="240" height="70" rx="22" fill="url(#unit)" stroke="#c9d6d1" stroke-width="2"/></g>
<rect x="138" y="211" width="204" height="10" rx="5" fill="#d7e1dd"/><circle cx="330" cy="189" r="5" fill="#6ee7b7"/><text x="240" y="340" text-anchor="middle" font-size="24" font-weight="700" fill="#0f382e">Yatak odası</text><text x="240" y="292" text-anchor="middle" font-size="40" font-weight="800" fill="#006c49">22°</text><path d="M240 380 C 240 470 600 460 600 540" fill="none" stroke="#c8773a" stroke-width="8" stroke-linecap="round"/><rect x="440" y="130" width="320" height="250" rx="18" fill="#fff" stroke="#cfe0d9" stroke-width="3"/><g filter="url(#sh)"><rect x="480" y="165" width="240" height="70" rx="22" fill="url(#unit)" stroke="#c9d6d1" stroke-width="2"/></g>
<rect x="498" y="211" width="204" height="10" rx="5" fill="#d7e1dd"/><circle cx="690" cy="189" r="5" fill="#6ee7b7"/><text x="600" y="340" text-anchor="middle" font-size="24" font-weight="700" fill="#0f382e">Salon</text><text x="600" y="292" text-anchor="middle" font-size="40" font-weight="800" fill="#006c49">24°</text><path d="M600 380 C 600 470 600 460 600 540" fill="none" stroke="#c8773a" stroke-width="8" stroke-linecap="round"/><rect x="800" y="130" width="320" height="250" rx="18" fill="#fff" stroke="#cfe0d9" stroke-width="3"/><g filter="url(#sh)"><rect x="840" y="165" width="240" height="70" rx="22" fill="url(#unit)" stroke="#c9d6d1" stroke-width="2"/></g>
<rect x="858" y="211" width="204" height="10" rx="5" fill="#d7e1dd"/><circle cx="1050" cy="189" r="5" fill="#6ee7b7"/><text x="960" y="340" text-anchor="middle" font-size="24" font-weight="700" fill="#0f382e">Çalışma odası</text><text x="960" y="292" text-anchor="middle" font-size="40" font-weight="800" fill="#006c49">23°</text><path d="M960 380 C 960 470 600 460 600 540" fill="none" stroke="#c8773a" stroke-width="8" stroke-linecap="round"/><g filter="url(#sh)"><rect x="470" y="540" width="260" height="170" rx="16" fill="url(#odu)" stroke="#b9c7c2" stroke-width="2"/></g>
<circle cx="579.2" cy="625.0" r="57.800000000000004" fill="#eef2f1" stroke="#b9c7c2" stroke-width="2"/>
<g stroke="#c3cfcb" stroke-width="3"><line x1="529.4000000000001" y1="586.4666666666667" x2="629.0" y2="586.4666666666667"/><line x1="529.4000000000001" y1="605.7333333333333" x2="629.0" y2="605.7333333333333"/><line x1="529.4000000000001" y1="625.0" x2="629.0" y2="625.0"/><line x1="529.4000000000001" y1="644.2666666666668" x2="629.0" y2="644.2666666666668"/><line x1="529.4000000000001" y1="663.5333333333334" x2="629.0" y2="663.5333333333334"/></g>
<circle cx="579.2" cy="625.0" r="12" fill="#b9c7c2"/><rect x="676" y="562" width="30" height="126" rx="6" fill="#e6ecea" stroke="#c3cfcb"/>
</svg>